<?xml version="1.0" encoding="utf-8" ?>
<svg xmlns="http://www.w3.org/2000/svg" xmlns:xlink="http://www.w3.org/1999/xlink" width="16" height="16">
	<defs>
		<clipPath id="clip_0">
			<rect x="-328" y="-441" width="2337" height="2075" clip-rule="evenodd"/>
		</clipPath>
	</defs>
	<g clip-path="url(#clip_0)">
		<path fill="rgb(151,151,151)" stroke="none" d="M2 16L14 16C15.105 16 16 15.105 16 14L16 2C16 0.895 15.105 0 14 0L12 0L12 1C12 1.552 11.552 2 11 2C10.448 2 10 1.552 10 1L10 0L6 0L6 1C6 1.552 5.552 2 5 2C4.448 2 4 1.552 4 1L4 0L2 0C0.896 0 0 0.895 0 2L0 14C0 15.105 0.896 16 2 16ZM14 6C14 5.448 13.552 5 13 5L3 5C2.448 5 2 5.448 2 6L2 13C2 13.552 2.448 14 3 14L13 14C13.552 14 14 13.552 14 13L14 6ZM6 7L6 9L4 9L4 7L6 7ZM7 9L9 9L9 7L7 7L7 9ZM10 7L10 9L12 9L12 7L10 7ZM6 10L6 12L4 12L4 10L6 10ZM9 12L7 12L7 10L9 10L9 12ZM12 10L12 12L10 12L10 10L12 10Z" fill-rule="evenodd"/>
	</g>
</svg>
