<?xml version="1.0" encoding="utf-8" ?>
<svg xmlns="http://www.w3.org/2000/svg" xmlns:xlink="http://www.w3.org/1999/xlink" width="17" height="20">
	<defs>
		<clipPath id="clip_0">
			<rect x="-525" y="-3595" width="1440" height="4952" clip-rule="evenodd"/>
		</clipPath>
	</defs>
	<g clip-path="url(#clip_0)">
		<path fill="rgb(151,151,151)" stroke="none" d="M1.73885 1.33889L15.2612 1.33889L10.2179 8.60301C10.1787 8.65948 10.1493 8.72012 10.1291 8.78279C10.0218 8.90228 9.95621 9.06237 9.95621 9.23832L9.95621 16.5517L7.04379 18.1847L7.04379 9.23832C7.04379 9.06237 6.97816 8.90227 6.87085 8.78279C6.85074 8.72011 6.82126 8.65948 6.78205 8.60301L1.73885 1.33889ZM6.83067 19.8271C6.71586 19.9346 6.56361 20 6.39659 20C6.03914 20 5.74938 19.7003 5.74938 19.3306L5.74938 9.40965C5.74298 9.40129 5.73674 9.39273 5.73066 9.38398L0.121556 1.30475C-0.00871208 1.11712 -0.0316888 0.883432 0.0402235 0.681887L0.0401139 0.669444C0.0401139 0.29972 0.329877 0 0.687318 0L16.3127 0C16.6701 0 16.9599 0.29972 16.9599 0.669444L16.9598 0.681891C17.0317 0.88343 17.0087 1.11712 16.8784 1.30475L11.2693 9.38398C11.2633 9.39273 11.257 9.40129 11.2506 9.40965L11.2506 16.7055C11.2506 16.7472 11.2469 16.7881 11.2399 16.8277C11.2899 17.1056 11.165 17.3969 10.9118 17.5389L6.83648 19.8239C6.83455 19.825 6.83261 19.826 6.83067 19.8271Z" fill-rule="evenodd"/>
	</g>
</svg>
