<svg width="19" height="20" viewBox="0 0 19 20" fill="none" xmlns="http://www.w3.org/2000/svg">
<path fill-rule="evenodd" clip-rule="evenodd" d="M2.73883 1.33889H16.2611L11.2179 8.60301C11.1787 8.65949 11.1492 8.72013 11.1291 8.78282C11.0218 8.9023 10.9562 9.06239 10.9562 9.23832V16.5517L8.04379 18.1847V9.23832C8.04379 9.06236 7.97815 8.90226 7.87082 8.78277C7.85071 8.7201 7.82123 8.65947 7.78204 8.60301L2.73883 1.33889ZM7.83072 19.8271C7.71591 19.9345 7.56366 20 7.39661 20C7.03915 20 6.74939 19.7003 6.74939 19.3306V9.40967C6.74298 9.4013 6.73672 9.39274 6.73065 9.38398L1.12155 1.30475C0.991302 1.11713 0.968323 0.883456 1.04022 0.681918L1.0401 0.669444C1.0401 0.29972 1.32986 0 1.68732 0H17.3127C17.6701 0 17.9599 0.29972 17.9599 0.669444L17.9597 0.681898C18.0316 0.883441 18.0087 1.11712 17.8784 1.30475L12.2693 9.38398C12.2632 9.39273 12.257 9.40128 12.2506 9.40963V16.7055C12.2506 16.7472 12.2469 16.7881 12.2398 16.8278C12.2899 17.1056 12.165 17.3969 11.9118 17.5388L7.83646 19.8239C7.83453 19.825 7.83264 19.826 7.83072 19.8271Z" fill="#979797"/>
<path d="M7.20502 5.19497L6.85145 5.54851L6.85146 5.54853L7.20502 5.19497ZM9.51004 7.5L9.86359 7.85355L10.2171 7.5L9.86359 7.14645L9.51004 7.5ZM7.20502 4.20503L6.85147 3.85147L6.85145 3.85149L7.20502 4.20503ZM8.19498 4.20503L8.54853 3.85147L8.54852 3.85147L8.19498 4.20503ZM10.5 6.51005L10.1464 6.8636L10.5 7.21715L10.8536 6.8636L10.5 6.51005ZM12.805 4.20503L12.4515 3.85147L12.4515 3.85147L12.805 4.20503ZM13.795 4.20503L14.1485 3.85149L14.1485 3.85147L13.795 4.20503ZM13.795 5.19497L14.1485 5.54853L14.1485 5.54851L13.795 5.19497ZM11.49 7.5L11.1364 7.14645L10.7829 7.5L11.1364 7.85355L11.49 7.5ZM13.795 9.80503L14.1485 9.45149L14.1485 9.45147L13.795 9.80503ZM13.795 10.795L14.1485 11.1485L14.1485 11.1485L13.795 10.795ZM12.805 10.795L12.4515 11.1485L12.4515 11.1485L12.805 10.795ZM10.5 8.48995L10.8536 8.1364L10.5 7.78285L10.1464 8.1364L10.5 8.48995ZM8.19498 10.795L8.54852 11.1485L8.54853 11.1485L8.19498 10.795ZM7.20502 10.795L6.85145 11.1485L6.85147 11.1485L7.20502 10.795ZM7.20502 9.80503L6.85146 9.45147L6.85145 9.45149L7.20502 9.80503ZM6.85146 5.54853L9.15649 7.85355L9.86359 7.14645L7.55857 4.84142L6.85146 5.54853ZM6.85145 3.85149C6.38286 4.32011 6.38286 5.07989 6.85145 5.54851L7.55858 4.84144C7.48048 4.76333 7.48048 4.63667 7.55858 4.55857L6.85145 3.85149ZM8.54852 3.85147C8.07989 3.38284 7.32011 3.38284 6.85147 3.85147L7.55856 4.55858C7.63668 4.48047 7.76331 4.48047 7.84143 4.55858L8.54852 3.85147ZM10.8536 6.15649L8.54853 3.85147L7.84142 4.55858L10.1464 6.8636L10.8536 6.15649ZM10.8536 6.8636L13.1586 4.55858L12.4515 3.85147L10.1464 6.15649L10.8536 6.8636ZM13.1586 4.55858C13.2367 4.48047 13.3633 4.48047 13.4414 4.55858L14.1485 3.85147C13.6799 3.38284 12.9201 3.38284 12.4515 3.85147L13.1586 4.55858ZM13.4414 4.55857C13.5195 4.63667 13.5195 4.76333 13.4414 4.84144L14.1485 5.54851C14.6171 5.07989 14.6171 4.32011 14.1485 3.85149L13.4414 4.55857ZM13.4414 4.84142L11.1364 7.14645L11.8435 7.85355L14.1485 5.54853L13.4414 4.84142ZM14.1485 9.45147L11.8435 7.14645L11.1364 7.85355L13.4414 10.1586L14.1485 9.45147ZM14.1485 11.1485C14.6171 10.6799 14.6171 9.92011 14.1485 9.45149L13.4414 10.1586C13.5195 10.2367 13.5195 10.3633 13.4414 10.4414L14.1485 11.1485ZM12.4515 11.1485C12.9201 11.6172 13.6799 11.6172 14.1485 11.1485L13.4414 10.4414C13.3633 10.5195 13.2367 10.5195 13.1586 10.4414L12.4515 11.1485ZM10.1464 8.84351L12.4515 11.1485L13.1586 10.4414L10.8536 8.1364L10.1464 8.84351ZM10.1464 8.1364L7.84142 10.4414L8.54853 11.1485L10.8536 8.84351L10.1464 8.1364ZM7.84143 10.4414C7.76331 10.5195 7.63668 10.5195 7.55856 10.4414L6.85147 11.1485C7.32011 11.6172 8.07989 11.6172 8.54852 11.1485L7.84143 10.4414ZM7.55858 10.4414C7.48048 10.3633 7.48048 10.2367 7.55858 10.1586L6.85145 9.45149C6.38286 9.92011 6.38286 10.6799 6.85145 11.1485L7.55858 10.4414ZM7.55857 10.1586L9.86359 7.85355L9.15649 7.14645L6.85146 9.45147L7.55857 10.1586Z" fill="white"/>
<path fill-rule="evenodd" clip-rule="evenodd" d="M9.51004 7.5L7.20502 5.19497C6.93167 4.92161 6.93167 4.47839 7.20502 4.20503C7.47839 3.93166 7.9216 3.93166 8.19498 4.20503L10.5 6.51005L12.805 4.20503C13.0784 3.93166 13.5216 3.93166 13.795 4.20503C14.0683 4.47839 14.0683 4.92161 13.795 5.19497L11.49 7.5L13.795 9.80503C14.0683 10.0784 14.0683 10.5216 13.795 10.795C13.5216 11.0683 13.0784 11.0683 12.805 10.795L10.5 8.48995L8.19498 10.795C7.9216 11.0683 7.47839 11.0683 7.20502 10.795C6.93167 10.5216 6.93167 10.0784 7.20502 9.80503L9.51004 7.5Z" fill="#B32520"/>
</svg>
