<?xml version="1.0" encoding="utf-8" ?>
<svg xmlns="http://www.w3.org/2000/svg" xmlns:xlink="http://www.w3.org/1999/xlink" width="25" height="26">
	<defs>
		<clipPath id="clip_0">
			<rect x="-1367" y="-2378" width="1440" height="4054" clip-rule="evenodd"/>
		</clipPath>
		<linearGradient id="gradient_0" gradientUnits="userSpaceOnUse" x1="0" y1="0" x2="25" y2="26">
			<stop offset="0" stop-color="rgb(186,0,0)"/>
			<stop offset="1" stop-color="rgb(179,37,32)"/>
		</linearGradient>
	</defs>
	<g clip-path="url(#clip_0)">
		<path fill="url(#gradient_0)" stroke="none" transform="translate(0 0.5)" d="M22.1157 14.3098C22.133 13.7988 22.1431 13.2455 22.1431 13C22.1431 12.5612 22.1109 12.1388 22.0467 11.7325L24.7628 9.5875C25.0039 9.3925 25.0682 9.035 24.9235 8.75875L22.352 4.2575C22.1913 3.965 21.8538 3.8675 21.5645 3.965L18.3662 5.265C17.6912 4.745 16.984 4.3225 16.1965 3.9975L15.7144 0.5525C15.6661 0.2275 15.3929 0 15.0715 0L9.92851 0C9.60707 0 9.34993 0.2275 9.30171 0.5525L8.81956 3.9975C8.03204 4.3225 7.30881 4.76125 6.64986 5.265L3.45157 3.965C3.16228 3.85125 2.82477 3.965 2.66405 4.2575L0.0925661 8.75875C-0.068152 9.05125 -0.00386475 9.3925 0.253284 9.5875L2.96942 11.7325C2.90513 12.1388 2.85692 12.5775 2.85692 13C2.85692 13.4225 2.88906 13.8612 2.95335 14.2675L0.237212 16.4125C-0.00386475 16.6075 -0.068152 16.965 0.0764943 17.2412L2.64798 21.7425C2.8087 22.035 3.14621 22.1325 3.4355 22.035L6.63379 20.735C7.30881 21.255 8.01597 21.6775 8.80348 22.0025L9.28564 25.4475C9.34993 25.7725 9.60707 26 9.92851 26L15.0715 26C15.3929 26 15.6661 25.7725 15.6983 25.4475L16.1804 22.0025C16.968 21.6775 17.6912 21.2388 18.3501 20.735L21.5484 22.035C21.8377 22.1488 22.1752 22.035 22.3359 21.7425L24.9074 17.2412C25.0682 16.9487 25.0039 16.6075 24.7467 16.4125L22.1157 14.3098ZM8 12.5C8 14.975 10.025 17 12.5 17C14.975 17 17 14.975 17 12.5C17 10.025 14.975 8 12.5 8C10.025 8 8 10.025 8 12.5Z" fill-rule="evenodd"/>
	</g>
	<defs>
		<clipPath id="clip_1">
			<path d="M22.1431 13.5C22.1431 13.7455 22.133 14.2988 22.1157 14.8098L24.7467 16.9125C25.0039 17.1075 25.0682 17.4487 24.9074 17.7412L22.3359 22.2425C22.1752 22.535 21.8377 22.6488 21.5484 22.535L18.3501 21.235C17.6912 21.7388 16.968 22.1775 16.1804 22.5025L15.6983 25.9475C15.6661 26.2725 15.3929 26.5 15.0715 26.5L9.92851 26.5C9.60707 26.5 9.34993 26.2725 9.28564 25.9475L8.80348 22.5025C8.01597 22.1775 7.30881 21.755 6.63379 21.235L3.4355 22.535C3.14621 22.6325 2.8087 22.535 2.64798 22.2425L0.0764943 17.7412C-0.068152 17.465 -0.00386475 17.1075 0.237212 16.9125L2.95335 14.7675C2.88906 14.3612 2.85692 13.9225 2.85692 13.5C2.85692 13.0775 2.90513 12.6388 2.96942 12.2325L0.253284 10.0875C-0.00386475 9.8925 -0.068152 9.55125 0.0925661 9.25875L2.66405 4.7575C2.82477 4.465 3.16228 4.35125 3.45157 4.465L6.64986 5.765C7.30881 5.26125 8.03204 4.8225 8.81956 4.4975L9.30171 1.0525C9.34993 0.7275 9.60707 0.5 9.92851 0.5L15.0715 0.5C15.3929 0.5 15.6661 0.7275 15.7144 1.0525L16.1965 4.4975C16.984 4.8225 17.6912 5.245 18.3662 5.765L21.5645 4.465C21.8538 4.3675 22.1913 4.465 22.352 4.7575L24.9235 9.25875C25.0682 9.535 25.0039 9.8925 24.7628 10.0875L22.0467 12.2325C22.1109 12.6388 22.1431 13.0612 22.1431 13.5ZM12.5 17.5C10.025 17.5 8 15.475 8 13C8 10.525 10.025 8.5 12.5 8.5C14.975 8.5 17 10.525 17 13C17 15.475 14.975 17.5 12.5 17.5Z" clip-rule="evenodd"/>
		</clipPath>
	</defs>
	<g clip-path="url(#clip_1)">
		<path fill="none" stroke="rgb(179,37,32)" stroke-width="3" stroke-miterlimit="4" transform="translate(0 0.5)" d="M22.1157 14.3098C22.133 13.7988 22.1431 13.2455 22.1431 13C22.1431 12.5612 22.1109 12.1388 22.0467 11.7325L24.7628 9.5875C25.0039 9.3925 25.0682 9.035 24.9235 8.75875L22.352 4.2575C22.1913 3.965 21.8538 3.8675 21.5645 3.965L18.3662 5.265C17.6912 4.745 16.984 4.3225 16.1965 3.9975L15.7144 0.5525C15.6661 0.2275 15.3929 0 15.0715 0L9.92851 0C9.60707 0 9.34993 0.2275 9.30171 0.5525L8.81956 3.9975C8.03204 4.3225 7.30881 4.76125 6.64986 5.265L3.45157 3.965C3.16228 3.85125 2.82477 3.965 2.66405 4.2575L0.0925661 8.75875C-0.068152 9.05125 -0.00386475 9.3925 0.253284 9.5875L2.96942 11.7325C2.90513 12.1388 2.85692 12.5775 2.85692 13C2.85692 13.4225 2.88906 13.8612 2.95335 14.2675L0.237212 16.4125C-0.00386475 16.6075 -0.068152 16.965 0.0764943 17.2412L2.64798 21.7425C2.8087 22.035 3.14621 22.1325 3.4355 22.035L6.63379 20.735C7.30881 21.255 8.01597 21.6775 8.80348 22.0025L9.28564 25.4475C9.34993 25.7725 9.60707 26 9.92851 26L15.0715 26C15.3929 26 15.6661 25.7725 15.6983 25.4475L16.1804 22.0025C16.968 21.6775 17.6912 21.2388 18.3501 20.735L21.5484 22.035C21.8377 22.1488 22.1752 22.035 22.3359 21.7425L24.9074 17.2412C25.0682 16.9487 25.0039 16.6075 24.7467 16.4125L22.1157 14.3098ZM8 12.5C8 14.975 10.025 17 12.5 17C14.975 17 17 14.975 17 12.5C17 10.025 14.975 8 12.5 8C10.025 8 8 10.025 8 12.5Z" fill-rule="evenodd"/>
	</g>
</svg>