<?xml version="1.0" encoding="utf-8" ?>
<svg xmlns="http://www.w3.org/2000/svg" xmlns:xlink="http://www.w3.org/1999/xlink" width="26" height="23">
	<defs>
		<clipPath id="clip_0">
			<rect x="-1174.04" y="-29.76001" width="1382.4" height="3891.8398" clip-rule="evenodd"/>
		</clipPath>
	</defs>
	<g clip-path="url(#clip_0)">
		<path fill="rgb(194,194,194)" stroke="none" transform="matrix(0.96 0 0 0.96 0.698242 0.959961)" d="M9.90258 21.5377L9.90258 14.6588L15.4057 14.6588L15.4057 21.5377C15.4057 22.2943 16.0247 22.9134 16.7814 22.9134L20.9087 22.9134C21.6654 22.9134 22.2845 22.2943 22.2845 21.5377L22.2845 11.9073L24.6233 11.9073C25.2562 11.9073 25.5588 11.1231 25.0773 10.7104L13.5759 0.350821C13.0531 -0.11694 12.2551 -0.11694 11.7324 0.350821L0.230925 10.7104C-0.236836 11.1231 0.0520756 11.9073 0.684929 11.9073L3.02374 11.9073L3.02374 21.5377C3.02374 22.2943 3.64283 22.9134 4.3995 22.9134L8.52681 22.9134C9.28348 22.9134 9.90258 22.2943 9.90258 21.5377Z"/>
	</g>
</svg>
