<svg width="72" height="80" viewBox="0 0 72 80" fill="none" xmlns="http://www.w3.org/2000/svg">
<path fill-rule="evenodd" clip-rule="evenodd" d="M34.6876 0C18.7891 0 5.78125 12.9739 5.78125 28.8309C5.78125 44.6879 18.7891 57.6619 34.6876 57.6619C50.5862 57.6619 63.594 44.6879 63.594 28.8309C63.594 12.9739 50.5862 0 34.6876 0ZM53.4768 19.1005C54.1995 19.1005 54.8318 19.3708 55.4641 19.6411C56.0964 19.9114 56.7288 20.1816 57.4514 20.1816C56.3674 21.6232 51.6702 21.6232 50.2249 19.8213C50.4095 19.7599 50.5837 19.6985 50.7527 19.6389L50.756 19.6378C51.5779 19.3479 52.2793 19.1005 53.4768 19.1005ZM9.75592 24.1459C9.39459 25.9478 9.39459 27.3894 9.39459 28.8309C9.39459 39.2821 15.5372 47.9314 24.5704 52.256C23.4865 49.7333 23.1251 46.8502 23.1251 44.3275C23.099 44.1709 23.0748 44.0182 23.0516 43.8689L23.0051 43.5668C22.7369 41.8134 22.5433 40.5477 20.9572 39.2821C19.1505 37.4802 17.3439 35.3179 19.5118 32.4348C19.8732 31.714 20.2345 30.9932 19.5118 30.6328C18.3724 30.3081 17.5262 29.6177 16.6761 28.9241C15.6392 28.078 14.5963 27.2271 13.0079 27.0289C12.2852 27.0289 11.2012 26.3082 11.2012 25.2271C11.2012 24.8667 10.8399 24.5062 10.8399 24.5062C10.6592 24.5062 10.4786 24.4161 10.2979 24.326C10.1172 24.236 9.93658 24.1459 9.75592 24.1459ZM34.6877 54.058C32.1583 54.058 29.2677 53.6976 27.0997 52.9768C26.7384 52.256 26.7384 51.5353 27.0997 50.8145C28.545 47.9314 29.9904 45.4087 31.797 42.886C32.5197 42.1652 33.2423 41.4445 33.2423 40.3633C33.2423 39.6425 33.6036 38.5614 33.965 37.8406C35.049 36.0387 34.6877 34.9575 33.2423 34.5972C31.517 34.1669 30.3065 33.0947 29.15 32.0703C28.3689 31.3784 27.6124 30.7083 26.7384 30.2725C24.5704 29.1913 22.4025 28.4706 20.5958 29.5518C19.8731 29.9121 18.7891 30.2725 18.7891 29.1913C18.7891 28.5292 18.408 27.9431 18.0308 27.3632C17.5869 26.6805 17.1484 26.0065 17.3438 25.2271C16.9825 25.2271 16.6212 25.2271 16.2598 25.5874C15.8985 25.9479 15.5372 26.3082 14.8145 25.9479C14.2725 25.4072 14.3403 24.8667 14.408 24.326C14.4306 24.1459 14.4532 23.9657 14.4532 23.7855C14.8145 23.0647 15.1758 22.7043 15.8985 22.344C17.3438 21.9836 18.7891 21.9836 19.5118 23.7855C20.5958 20.542 22.7638 18.7401 24.9318 17.2986C24.9318 17.2986 27.8224 14.7759 28.1837 14.7759C28.3644 14.7759 28.545 14.9561 28.7709 15.1814C28.9967 15.4066 29.2677 15.6769 29.629 15.8571C30.3517 15.8571 30.713 15.8571 30.713 15.1362C31.0743 13.3344 29.9904 11.172 28.545 10.8116C28.545 10.4512 28.9064 10.4512 28.9064 10.4512C29.9904 10.0908 31.4357 9.37012 31.0743 8.28894C31.0743 6.84741 29.629 6.12659 28.1837 6.12659C27.4611 6.12659 26.7384 6.12659 26.0157 6.48694C24.5704 7.20776 22.7638 7.92847 20.5958 7.92847C24.5704 5.04541 29.629 3.60388 34.6877 3.60388H37.5783C35.4103 3.96423 33.2423 4.68506 31.797 5.40576C33.965 5.76624 34.3263 6.84741 33.6036 8.64929C33.2423 9.37012 33.6036 10.0908 34.3263 10.4512C35.049 10.8116 35.7717 10.8116 36.133 10.0908C36.7773 9.12695 37.9959 8.73596 39.0208 8.4071L39.0355 8.40234C39.1552 8.36389 39.272 8.32642 39.3849 8.28894C40.8302 7.92847 41.9143 7.20776 42.9983 5.76624C42.9983 5.54346 43.1364 5.45837 43.3271 5.3407C43.4451 5.26807 43.583 5.18298 43.7209 5.04541C45.8889 5.76624 48.0569 7.20776 50.2249 8.64929C50.0442 8.64929 49.9539 8.73938 49.8635 8.82947C49.7732 8.91956 49.6829 9.00964 49.5022 9.00964C49.3677 9.1438 49.2206 9.26538 49.0774 9.38416C48.4515 9.90186 47.8978 10.3597 48.7795 11.5323C49.1409 12.2532 48.7795 12.6135 48.4182 12.9739C47.6956 13.3344 47.3342 12.9739 46.9729 12.6135C46.9139 12.5547 46.8646 12.4863 46.8186 12.413C46.7871 12.3628 46.7572 12.3103 46.7268 12.257C46.5297 11.9114 46.3136 11.5323 45.5276 11.5323C45.4445 11.6982 45.3231 11.845 45.1855 11.9858C45.0995 12.0739 45.0071 12.1595 44.9137 12.2462C44.5072 12.6234 44.0823 13.0177 44.0823 13.6947C45.4453 13.6947 45.5743 14.5153 45.7107 15.3824C45.755 15.6647 45.8002 15.9519 45.8889 16.2174C43.7209 16.5778 42.9983 17.6589 44.0823 19.4609C44.374 20.0428 43.9592 20.3898 43.5984 20.6915C43.5355 20.744 43.4744 20.7952 43.4189 20.8459C43.3983 20.8649 43.3784 20.8837 43.3596 20.9025C43.0885 21.3081 42.8174 21.6881 42.5559 22.0551L42.553 22.0591C41.4213 23.6458 40.4689 24.9813 40.4689 27.0291C40.4689 29.5518 42.2756 32.0745 45.1663 31.714C46.8279 31.5299 47.6405 31.4398 48.1825 31.7804C48.7012 32.1063 48.972 32.8268 49.5022 34.2367C49.5022 34.417 49.5925 34.5972 49.6829 34.7773C49.7732 34.9575 49.8635 35.1377 49.8635 35.3179C50.2249 36.0387 50.5862 36.7594 50.2249 37.4802C49.2607 40.0443 50.2974 42.0383 51.301 43.9691L51.3025 43.972C51.4269 44.2113 51.5508 44.4496 51.6702 44.6879C52.0315 45.4087 52.3928 45.769 52.7542 46.1295C48.0569 51.1749 41.9143 54.058 34.6877 54.058Z" fill="#6C6B6B"/>
<path d="M0 63.428L4.61536 80H7.89746L10.2222 71.1343C10.6226 69.7214 10.9396 68.3086 11.2735 66.821L11.3846 66.3264H11.5214C11.6979 67.0454 11.8555 67.7391 12.0104 68.4211C12.2155 69.3241 12.4159 70.2065 12.6496 71.1002L15.0427 80H18.4615L22.906 63.428H20.2393L17.812 73.0098C17.4701 74.5782 17.1624 76.0786 16.7863 77.613H16.6496C16.2735 76.0786 15.8975 74.5782 15.4872 73.0098L12.8889 63.428H10.1539L7.58972 73.0098C7.31616 74.033 7.07294 75.0562 6.82971 76.0793C6.70825 76.5906 6.58679 77.1018 6.46155 77.613H6.32477C6.01709 76.0786 5.70941 74.5782 5.33331 73.0098L2.87177 63.428H0Z" fill="#6C6B6B"/>
<path d="M24.5471 63.428L29.1624 80H32.4445L34.7693 71.1343C35.1696 69.7214 35.4867 68.3086 35.8206 66.821L35.9317 66.3264H36.0684C36.245 67.0454 36.4025 67.7391 36.5574 68.4211C36.7625 69.3241 36.963 70.2065 37.1967 71.1002L39.5898 80H43.0085L47.453 63.428H44.7864L42.359 73.0098C42.2759 73.3914 42.1947 73.7689 42.1141 74.1438C41.8634 75.3102 41.618 76.4519 41.3334 77.613H41.1967C40.8206 76.0786 40.4445 74.5782 40.0342 73.0098L37.436 63.428H34.7009L32.1368 73.0098C31.8632 74.033 31.62 75.0562 31.3768 76.0793C31.2553 76.5906 31.1339 77.1018 31.0086 77.613H30.8718C30.5641 76.0786 30.2565 74.5782 29.8804 73.0098L27.4188 63.428H24.5471Z" fill="#6C6B6B"/>
<path d="M49.094 63.428L53.7094 80H56.9915L59.3162 71.1343C59.7606 69.5658 60.1025 67.9972 60.4786 66.3264H60.6154C60.7919 67.0454 60.9495 67.7393 61.1044 68.4214C61.3094 69.3242 61.5098 70.2067 61.7435 71.1002L64.1367 80H67.5555L72 63.428H69.3333L66.906 73.0098C66.823 73.3906 66.7419 73.7675 66.6615 74.1418C66.4106 75.309 66.165 76.4512 65.8804 77.613H65.7435C65.3676 76.0786 64.9915 74.5782 64.5812 73.0098L61.9829 63.428H59.2478L56.6837 73.0098C56.4104 74.0321 56.1674 75.0544 55.9244 76.0768C55.8027 76.5889 55.681 77.101 55.5555 77.613H55.4188C55.1111 76.0786 54.8033 74.5782 54.4274 73.0098L51.9658 63.428H49.094Z" fill="#6C6B6B"/>
</svg>
