<svg width="16" height="14" viewBox="0 0 16 14" fill="none" xmlns="http://www.w3.org/2000/svg">
<path fill-rule="evenodd" clip-rule="evenodd" d="M14.5597 0.472588C14.7056 0.472588 14.8322 0.525917 14.9389 0.63266C15.0456 0.739349 15.0991 0.865654 15.0991 1.0118V5.32586C15.0991 5.47191 15.0458 5.59828 14.9391 5.70499C14.8323 5.81174 14.7058 5.86513 14.5598 5.86513C14.4137 5.86513 14.2873 5.81174 14.1807 5.70499L12.6976 4.22208L7.20407 9.71567C7.14792 9.77186 7.08325 9.79984 7.01025 9.79984C6.93723 9.79984 6.87262 9.77183 6.81644 9.71567L5.8559 8.75523C5.79974 8.69907 5.77161 8.63447 5.77161 8.56131C5.77161 8.48842 5.79965 8.42378 5.8559 8.36762L11.3495 2.87395L9.86658 1.39103C9.75983 1.28429 9.70636 1.15785 9.70636 1.0118C9.70636 0.865746 9.75983 0.739349 9.86658 0.63266C9.97324 0.525917 10.0997 0.472588 10.2457 0.472588H14.5597ZM11.0547 8.02195H11.594C11.6725 8.02195 11.7372 8.04718 11.7877 8.09789C11.8384 8.14838 11.8637 8.21301 11.8637 8.29178V10.9879C11.8637 11.6563 11.6263 12.228 11.1516 12.7024C10.677 13.1771 10.1053 13.4146 9.43698 13.4146H2.42661C1.75824 13.4146 1.18665 13.1771 0.711914 12.7024C0.237335 12.228 0 11.6563 0 10.9879V3.9776C0 3.30921 0.237335 2.73763 0.711884 2.26302C1.18661 1.78838 1.75821 1.55104 2.42657 1.55104H8.35831C8.43707 1.55104 8.50171 1.57627 8.55222 1.62683C8.60269 1.67729 8.62793 1.74195 8.62793 1.82051V2.35985C8.62793 2.43855 8.60269 2.5031 8.55222 2.55365C8.50171 2.60414 8.43707 2.62949 8.35831 2.62949H2.42657C2.05585 2.62949 1.73846 2.76144 1.47443 3.02549C1.21039 3.2895 1.07846 3.60678 1.07846 3.97752V10.9878C1.07846 11.3586 1.21042 11.6759 1.47443 11.9399C1.73846 12.2039 2.05585 12.3358 2.42657 12.3358H9.43698C9.80774 12.3358 10.1252 12.2039 10.3892 11.9399C10.6531 11.6759 10.7851 11.3586 10.7851 10.9878V8.29156C10.7851 8.21289 10.8103 8.14828 10.861 8.09789C10.9113 8.04718 10.9759 8.02195 11.0547 8.02195Z" fill="#222121"/>
</svg>
