<svg width="96" height="96" viewBox="0 0 96 96" fill="none" xmlns="http://www.w3.org/2000/svg">
<path fill-rule="evenodd" clip-rule="evenodd" d="M34.0082 0C14.8799 0 0 17.0831 0 37.2144C0 52.7706 8.22998 67.9493 22 73.3132V90C22 92.6177 23.8944 94.0102 24.6172 94.472C25.2775 94.8938 26.1816 95.2819 26.4355 95.3909L26.4413 95.3933C26.4708 95.406 26.4907 95.4146 26.4993 95.4186L26.5129 95.4249L26.5267 95.431C27.3361 95.797 28.2238 96 29.1456 96C30.6838 96 32.1972 95.435 33.3771 94.3748L55.5992 74.4264H61.9941C81.1199 74.4264 96 57.3459 96 37.2144C96 17.0833 81.1203 0 61.9941 0H34.0082ZM8 37.2144C8 20.7178 20.0429 8 34.0082 8H61.9941C75.9569 8 88 20.7177 88 37.2144C88 53.7108 75.9572 66.4264 61.9941 66.4264H52.5352L30 86.6558V67.3698L27.0507 66.5668C15.9562 63.5466 8 51.344 8 37.2144ZM48 58C49.104 58 50 57.0983 50 55.9827V40H65.9827C67.0983 40 68 39.106 68 38C68 36.896 67.0983 36 65.9827 36H50V20.0173C50 18.9037 49.104 18 48 18C46.894 18 46 18.9037 46 20.0173V36H30.0173C28.9037 36 28 36.896 28 38C28 39.106 28.9037 40 30.0173 40H46V55.9827C46 57.0983 46.894 58 48 58Z" fill="#354052"/>
</svg>
