<svg width="27" height="27" viewBox="0 0 27 27" fill="none" xmlns="http://www.w3.org/2000/svg">
<path fill-rule="evenodd" clip-rule="evenodd" d="M13.5 26C20.4036 26 26 20.4036 26 13.5C26 6.59644 20.4036 1 13.5 1C6.59644 1 1 6.59644 1 13.5C1 20.4036 6.59644 26 13.5 26Z" stroke="#B32520"/>
<path d="M13.0809 7.13428L19.637 14.6763C20.8969 16.1256 20.7435 18.3201 19.2941 19.58C17.8447 20.8399 15.6503 20.6865 14.3904 19.2371L7.26414 11.0393C6.4774 10.1342 6.57342 8.76118 7.47846 7.97444C8.38349 7.1877 9.75653 7.28371 10.5433 8.18875L16.5293 15.0749C16.8429 15.4356 16.8043 15.9873 16.4436 16.3009C16.0829 16.6144 15.5312 16.5758 15.2177 16.2151L9.80172 9.98478L8.81798 10.8399L14.2339 17.0703C15.0207 17.9753 16.3937 18.0713 17.2988 17.2846C18.2038 16.4979 18.2998 15.1248 17.5131 14.2198L11.527 7.3336C10.2671 5.88423 8.07268 5.73078 6.6233 6.9907C5.17393 8.25062 5.02048 10.445 6.2804 11.8944L13.4067 20.0922C15.1398 22.0859 18.1555 22.2968 20.1493 20.5637C22.143 18.8306 22.3539 15.8148 20.6207 13.8211L14.0646 6.27912L13.0809 7.13428Z" fill="#B32520"/>
</svg>
