<svg width="46" height="46" viewBox="0 0 46 46" fill="none" xmlns="http://www.w3.org/2000/svg">
<path fill-rule="evenodd" clip-rule="evenodd" d="M29.9971 1H16.0041C7.7307 1 1 8.45024 1 17.6072C1 25.2988 5.34237 32.4008 12 34.2132V44C12 44.472 12.6653 44.6985 13.0872 44.8931C13.244 44.964 13.4078 45 13.5728 45C13.8533 45 14.1326 44.8967 14.3518 44.6997L26.0336 34.2132H29.9971C38.2693 34.2132 45 26.7642 45 17.6072C45 8.45024 38.2693 1 29.9971 1Z" stroke="#354052" stroke-width="2"/>
<path fill-rule="evenodd" clip-rule="evenodd" d="M31.9914 17H14.0086C13.4519 17 13 17.448 13 18C13 18.553 13.4519 19 14.0086 19H31.9914C32.5491 19 33 18.553 33 18C33 17.448 32.5491 17 31.9914 17Z" fill="#354052"/>
<path fill-rule="evenodd" clip-rule="evenodd" d="M23 28C23.552 28 24 27.5491 24 26.9914L24 9.00862C24 8.45186 23.552 8 23 8C22.447 8 22 8.45186 22 9.00862L22 26.9914C22 27.5491 22.447 28 23 28" fill="#354052"/>
</svg>
