<svg width="25" height="25" viewBox="0 0 25 25" fill="none" xmlns="http://www.w3.org/2000/svg">
<path fill-rule="evenodd" clip-rule="evenodd" d="M18.3782 14.4731C19.0479 14.4731 19.6797 14.7634 20.2035 15.3065L23.1683 18.2688C23.7137 18.8065 24 19.4462 24 20.1129C24 20.7742 23.7192 21.4193 23.1846 21.9731C22.9523 22.2151 22.7147 22.4462 22.4825 22.6667L22.4088 22.7377C22.0955 23.0392 21.7979 23.3257 21.5375 23.6398C21.532 23.6505 21.5212 23.6559 21.5159 23.6667C20.6949 24.5538 19.6472 25 18.3998 25C18.2917 25 18.173 24.9946 18.0596 24.9893C16.2073 24.871 14.5493 24.1774 13.3073 23.5914C10.0562 22.0269 7.21021 19.8065 4.84473 16.9946C2.89526 14.6613 1.58838 12.4839 0.713501 10.1344C0.357056 9.17743 -0.107422 7.71506 0.0222168 6.14517C0.108643 5.17206 0.502808 4.33334 1.19409 3.64517L3.03027 1.80109L3.04102 1.79031C3.58105 1.2742 4.21838 1 4.8772 1C5.53601 1 6.16248 1.2742 6.68628 1.79031C7.03735 2.11292 7.37756 2.457 7.70154 2.79031C7.86365 2.96237 8.03638 3.1344 8.20386 3.30109L9.6781 4.76883C10.8123 5.89786 10.8123 7.36023 9.6781 8.48926C9.52698 8.63977 9.37573 8.79568 9.22449 8.94623C8.82483 9.34946 8.41443 9.76883 7.97156 10.1721C8.30103 10.8979 8.75464 11.6129 9.42969 12.4624C10.823 14.1667 12.2758 15.4839 13.8743 16.4946C14.0309 16.5914 14.2145 16.6828 14.4089 16.7796C14.4545 16.8031 14.5005 16.8266 14.547 16.8504C14.6384 16.8972 14.7316 16.9447 14.8247 16.9946L16.5312 15.3011C17.0767 14.7581 17.714 14.4731 18.3782 14.4731ZM21.6028 21.5027C21.7883 21.3231 21.9645 21.1526 22.1368 20.9677C22.6877 20.3978 22.6877 19.8333 22.1315 19.2849L19.1559 16.3226L19.145 16.3118C18.9777 16.129 18.7021 15.9193 18.3674 15.9193C18.0271 15.9193 17.7355 16.1398 17.5519 16.3226L15.705 18.1613C15.6132 18.2527 15.3324 18.5323 14.8842 18.5323C14.7059 18.5323 14.5331 18.4892 14.3495 18.3978C14.3279 18.3871 14.3063 18.3709 14.2847 18.3602C14.1281 18.2634 13.9445 18.172 13.75 18.0753C13.5341 17.9677 13.3073 17.8548 13.0858 17.715C11.3523 16.6237 9.78076 15.1989 8.29028 13.3709L8.28479 13.3656C7.46399 12.3279 6.92395 11.457 6.54053 10.5323L6.52429 10.4839C6.42712 10.1774 6.3407 9.7258 6.80518 9.26343C6.81055 9.25269 6.82129 9.24728 6.83215 9.23654C7.302 8.8172 7.73401 8.38708 8.18762 7.92471C8.29187 7.82446 8.3938 7.72183 8.49646 7.61841C8.54797 7.56653 8.59973 7.51443 8.6521 7.46234C9.22449 6.89246 9.22449 6.36557 8.6521 5.79568L7.17773 4.32794C7.0918 4.23975 7.00598 4.15286 6.92078 4.06665C6.83447 3.97946 6.7489 3.89294 6.66467 3.80643C6.33533 3.46774 6.02209 3.15051 5.69263 2.84409L5.67639 2.82794C5.50366 2.65591 5.22815 2.4516 4.88794 2.4516C4.61255 2.4516 4.33179 2.586 4.06714 2.83331L2.22559 4.66666C1.77734 5.11288 1.5343 5.6344 1.48035 6.26343C1.39929 7.24728 1.58289 8.29031 2.08521 9.62903C2.90063 11.8226 4.13196 13.8656 5.97351 16.0753C8.20386 18.7258 10.8878 20.8172 13.9445 22.2903C15.0624 22.8226 16.5529 23.4462 18.1567 23.5484C18.1858 23.5503 18.2156 23.5515 18.2455 23.5523C18.2991 23.5537 18.3533 23.5537 18.4052 23.5537C19.2477 23.5537 19.8903 23.2796 20.4357 22.6989C20.7705 22.3064 21.127 21.957 21.478 21.6237L21.6028 21.5027Z" fill="#B32520"/>
<path d="M13.5447 5.31296C14.8291 5.52867 15.9958 6.1366 16.9273 7.0681C17.8587 7.9996 18.4617 9.16642 18.6823 10.4509C18.7362 10.7745 19.0156 11 19.3342 11C19.3735 11 19.4078 10.9951 19.447 10.9902C19.8098 10.9314 20.05 10.5882 19.9911 10.2254C19.7264 8.67125 18.9911 7.2544 17.8685 6.1317C16.7459 5.009 15.3291 4.2736 13.7751 4.00886C13.4124 3.95003 13.0741 4.19026 13.0104 4.54815C12.9467 4.90604 13.182 5.25413 13.5447 5.31296Z" fill="#B32520"/>
<path d="M24.9899 10.236C24.5542 7.67952 23.3499 5.35322 21.4993 3.50198C19.6487 1.65073 17.3232 0.445954 14.7677 0.0100797C14.4103 -0.0535874 14.0725 0.191286 14.0088 0.548801C13.9501 0.911214 14.19 1.24914 14.5523 1.31281C16.8337 1.69971 18.9143 2.78205 20.5691 4.43249C22.2238 6.08784 23.3009 8.16926 23.6877 10.4515C23.7415 10.7747 24.0206 11 24.3388 11C24.378 11 24.4122 10.9951 24.4514 10.9902C24.8088 10.9363 25.0536 10.5935 24.9899 10.236Z" fill="#B32520"/>
</svg>
