<svg width="40" height="40" viewBox="0 0 40 40" fill="none" xmlns="http://www.w3.org/2000/svg">
<path fill-rule="evenodd" clip-rule="evenodd" d="M39.9657 10.6624C39.8627 10.2168 39.5375 9.85556 39.1049 9.70688L35.8849 8.59909L35.5729 5.70468C35.5063 5.08457 35.0163 4.59482 34.3964 4.52817L31.5028 4.21665L30.3957 0.996797C30.247 0.56418 29.8859 0.238862 29.4401 0.135957C28.9948 0.0328078 28.5273 0.166841 28.2038 0.490449C25.7397 2.95468 24.6491 6.19467 25.0402 9.02658C24.1217 8.74777 23.141 8.6008 22.1225 8.6008C18.7716 8.6008 15.3319 10.119 12.6855 12.7658C9.15836 16.2931 7.82681 21.0554 8.89444 24.9231C8.52945 24.8729 8.15592 24.8473 7.77603 24.8473C5.14884 24.8473 2.45621 26.0334 0.388338 28.1014C0.0650958 28.4248 -0.0689374 28.8922 0.0340899 29.3379C0.137117 29.7835 0.462313 30.1445 0.894686 30.2936L4.11466 31.4012L4.42642 34.2954C4.49332 34.9155 4.98306 35.4052 5.60294 35.472L8.49674 35.7837L9.60391 39.0034C9.7526 39.436 10.1139 39.7614 10.5595 39.8642C10.6586 39.8872 10.7587 39.8984 10.8581 39.8984C11.206 39.8984 11.5443 39.7614 11.7961 39.5099C14.2504 37.0553 15.3417 33.8311 14.9638 31.0072C15.8273 31.2497 16.7441 31.3762 17.693 31.3762C21.0439 31.3762 24.4836 29.8582 27.1303 27.2114C30.6593 23.6822 31.9904 18.9164 30.9196 15.0475C31.3434 15.1161 31.7787 15.153 32.2238 15.153C34.851 15.153 37.5439 13.967 39.6115 11.8989C39.9347 11.5753 40.0688 11.108 39.9657 10.6624ZM26.8256 13.0699C28.5951 14.8398 29.047 17.5296 28.3019 20.2224L19.674 11.5937C20.4865 11.3707 21.3092 11.2534 22.1225 11.2534C24.0109 11.2534 25.6371 11.8816 26.8256 13.0699ZM10.7309 34.1235L11.3197 35.8365C12.7978 33.338 12.7995 30.4676 11.1144 28.7824C10.2753 27.9432 9.121 27.4997 7.77579 27.4997C6.52408 27.4997 5.23892 27.88 4.06046 28.577L5.77432 29.1667C6.26065 29.334 6.60636 29.7673 6.66153 30.2787L6.94913 32.9486L9.61881 33.2362C10.13 33.2912 10.5634 33.6371 10.7309 34.1235ZM12.9901 26.9067C11.2204 25.1371 10.7685 22.447 11.5138 19.7542L20.1418 28.383C19.3293 28.6061 18.5063 28.7234 17.693 28.7234C15.8046 28.7232 14.1784 28.0953 12.9901 26.9067ZM22.7707 27.2607C23.653 26.7426 24.4921 26.098 25.2543 25.3355C26.0253 24.5647 26.6667 23.7243 27.1789 22.8507L17.0448 12.716C16.1625 13.2341 15.3234 13.8789 14.5612 14.6413C13.7904 15.4121 13.1488 16.2523 12.6366 17.1259L22.7707 27.2607ZM32.2233 12.5002C30.8783 12.5002 29.724 12.0567 28.8849 11.2177C27.1999 9.53244 27.2016 6.66196 28.6796 4.16342L29.2687 5.87644C29.4359 6.36289 29.8693 6.70871 30.3808 6.76389L33.0502 7.05124L33.3378 9.72141C33.3927 10.2328 33.7387 10.6662 34.225 10.8335L35.9389 11.4231C34.7604 12.1201 33.4753 12.5002 32.2233 12.5002ZM22.8036 21.7795C22.8605 21.7719 22.9179 21.768 22.9755 21.768C23.1161 21.768 23.2555 21.7911 23.3883 21.8348C23.5846 21.8995 23.766 22.0094 23.9132 22.1566C24.0668 22.3103 24.1798 22.5009 24.2431 22.7072C24.2814 22.8321 24.3017 22.9627 24.3017 23.0943C24.3017 23.4446 24.1598 23.7854 23.9132 24.0335C23.6664 24.2802 23.3241 24.4209 22.9755 24.4209C22.6252 24.4209 22.2843 24.2801 22.0378 24.0335C21.9882 23.9836 21.9428 23.93 21.902 23.8734C21.8278 23.7701 21.7685 23.6568 21.726 23.5373C21.6757 23.396 21.6491 23.2461 21.6491 23.0943C21.6491 22.7456 21.7909 22.4033 22.0378 22.1566C22.1935 22.0007 22.3869 21.8867 22.5966 21.8239C22.6642 21.8037 22.7333 21.7888 22.8036 21.7795ZM19.8798 18.6738C19.5309 18.6738 19.1886 18.8156 18.942 19.0623C18.6952 19.3091 18.5534 19.6513 18.5534 20.0001C18.5534 20.349 18.6952 20.6911 18.942 20.9377C19.1886 21.1845 19.5309 21.3265 19.8798 21.3265C20.0861 21.3265 20.2892 21.2772 20.4718 21.1861C20.599 21.1227 20.716 21.039 20.8173 20.9377C21.0653 20.6911 21.206 20.349 21.206 20.0001C21.206 19.7993 21.1593 19.6007 21.0724 19.4212C21.0085 19.2889 20.9225 19.1671 20.8173 19.0623C20.5719 18.8156 20.2299 18.6738 19.8798 18.6738ZM15.8478 15.9666C16.0944 15.7199 16.4352 15.5793 16.7856 15.5793C17.1354 15.5793 17.4765 15.7199 17.7231 15.9666C17.9699 16.2146 18.1117 16.5555 18.1117 16.9056C18.1117 17.0959 18.0695 17.2838 17.9911 17.4553C17.9259 17.5982 17.8354 17.7298 17.7231 17.8419C17.4765 18.0901 17.1342 18.2307 16.7856 18.2307C16.4352 18.2307 16.0944 18.0901 15.8478 17.8419C15.601 17.5953 15.4591 17.2545 15.4591 16.9056C15.4591 16.5555 15.601 16.2134 15.8478 15.9666Z" fill="#979797"/>
</svg>
