<svg width="50" height="40" viewBox="0 0 50 40" fill="none" xmlns="http://www.w3.org/2000/svg">
<path fill-rule="evenodd" clip-rule="evenodd" d="M48.5369 14.3313L49.8923 11.5267C50.145 11.0042 49.9375 10.37 49.429 10.1106C48.9202 9.85083 48.3035 10.0643 48.0508 10.5868L46.6953 13.3914C45.7429 12.9109 44.603 13.1063 43.8545 13.8798L40.0017 17.8602C39.9377 17.9263 39.8833 17.9999 39.8391 18.0789C39.7224 18.2877 39.6772 18.5342 39.7163 18.7772C39.77 19.1123 39.9773 19.4004 40.2732 19.5514L40.9619 19.903C40.7791 20.6483 40.3833 21.9015 39.5737 23.2921C39.3396 23.6945 39.0859 24.0806 38.8162 24.4531C38.6382 22.9224 37.9163 21.6022 36.7585 20.5703L36.9412 20.4764C37.3262 20.2788 37.5503 19.8557 37.5034 19.4163C37.4932 19.3197 37.4702 19.2269 37.4363 19.1397C37.4121 19.0778 37.3823 19.0186 37.3479 18.963C37.3259 18.9276 37.302 18.8937 37.2761 18.8613C37.1392 18.6898 36.9502 18.563 36.731 18.5067L30.083 16.799V13.8082C30.083 13.2247 29.6226 12.7517 29.0549 12.7517C28.4871 12.7517 28.0269 13.2247 28.0269 13.8082V16.799L21.3789 18.5066C20.9617 18.6138 20.6533 18.9767 20.6064 19.4161C20.5596 19.8556 20.7839 20.2787 21.1687 20.4763L21.3511 20.5702C20.0076 21.7679 19.25 23.3538 19.25 25.2068C19.25 27.4063 20.3064 29.6785 22.1479 31.4409C23.1321 32.3826 24.2598 33.1038 25.468 33.5842C25.1663 34.0745 24.9961 34.5826 24.9573 35.1107C24.7922 37.3529 27.0977 38.799 27.8083 39.1888C28.4956 39.5659 29.8584 40 31.5911 40C32.8604 40 34.3281 39.767 35.8743 39.1085C38.1755 38.1282 40.2837 36.3748 42.1401 33.8969C44.1873 31.165 45.9351 27.5305 47.3433 23.0829L47.3635 23.104C47.6375 23.3921 48.0471 23.4949 48.4194 23.369C48.792 23.2433 49.0623 22.9108 49.1167 22.512L49.8748 16.9522C50.022 15.8718 49.4844 14.8206 48.5369 14.3313ZM28.0269 18.9767V19.5314C28.0269 20.1149 28.4871 20.5878 29.0549 20.5878C29.6226 20.5878 30.083 20.1149 30.083 19.5314V18.9767L33.5356 19.8638L32.3083 20.4943C31.96 20.6732 31.74 21.0391 31.74 21.4392V23.5457L29.5146 22.4021C29.4268 22.3569 29.334 22.3254 29.2395 22.3077C29.1785 22.2964 29.1167 22.2907 29.0549 22.2907C28.8972 22.2907 28.7397 22.3278 28.5952 22.4021L26.3699 23.5455V21.4392C26.3699 21.0391 26.1497 20.6733 25.8013 20.4943L25.7451 20.4654L24.574 19.8638L25.7451 19.5629L28.0269 18.9767ZM23.4192 21.6328C23.4172 21.6341 23.4153 21.6353 23.4133 21.6365C23.1484 21.8047 22.9027 21.9888 22.6795 22.1891C21.9872 22.8105 21.5125 23.5881 21.3594 24.5314C21.3243 24.7477 21.3062 24.9729 21.3062 25.2068C21.3062 25.9842 21.5037 26.792 21.8648 27.5702C22.1943 28.2804 22.6601 28.9659 23.2363 29.581C24.2379 30.6504 25.5731 31.5073 27.1067 31.9121C28.1909 31.1249 29.6875 30.3871 31.6094 29.6897C33.4922 29.0066 35.125 28.082 36.5024 26.9294C36.6987 26.3545 36.8037 25.7726 36.8037 25.2067C36.8037 23.6218 35.9692 22.4425 34.6904 21.6327L33.7961 22.0922V25.2549C33.7961 25.621 33.6118 25.9609 33.3086 26.1536C33.1436 26.2584 32.9561 26.3113 32.7681 26.3113C32.6108 26.3113 32.4534 26.2744 32.3083 26.1998L29.0549 24.5282L25.8013 26.1998C25.7722 26.2148 25.7426 26.2282 25.7126 26.2402C25.6204 26.2769 25.5244 26.2993 25.4277 26.3076C25.2117 26.3263 24.9915 26.2745 24.8013 26.1537C24.6323 26.0465 24.5002 25.8936 24.4163 25.7158C24.3496 25.5743 24.3135 25.4172 24.3135 25.255V22.0923L23.4192 21.6328ZM35.0869 37.1565C32.0312 38.4583 29.4961 37.7194 28.7769 37.325C27.8582 36.8209 26.9548 35.9901 27.0078 35.27C27.0374 34.8676 27.5063 33.4192 32.2939 31.6823C37.3667 29.8419 40.0432 26.6403 41.3953 24.2784C41.8091 23.5555 42.1272 22.8661 42.3716 22.2455L42.5251 22.7147C42.6316 23.0397 42.8845 23.2913 43.2039 23.3898C43.301 23.4198 43.4006 23.4345 43.4995 23.4345C43.7261 23.4345 43.9495 23.3575 44.1323 23.2107L45.4822 22.1276C42.3569 32.197 38.1238 35.8628 35.0869 37.1565ZM47.3706 20.0894L47.8384 16.6589C47.8633 16.4769 47.7722 16.2997 47.6121 16.2179L45.7913 15.2888C45.6311 15.2073 45.4385 15.2396 45.3123 15.37L42.4653 18.3113L43.0298 18.5992C43.2739 18.7238 43.46 18.9431 43.5469 19.2086L44.0112 20.6271L45.4812 19.4474C45.8938 19.1162 46.4829 19.1566 46.8491 19.5415L47.3706 20.0894Z" fill="#979797"/>
<path fill-rule="evenodd" clip-rule="evenodd" d="M21.8054 6.93335L24.2751 9.05957C25.2095 9.86389 25.7451 11.0342 25.7451 12.2701V19.5629L24.574 19.8638L25.7451 20.4654V25.7131C25.7451 25.8916 25.7341 26.0675 25.7126 26.2402C25.6204 26.2769 25.5244 26.2993 25.4277 26.3076C25.2117 26.3263 24.9915 26.2745 24.8013 26.1537C24.6323 26.0465 24.5002 25.8936 24.4163 25.7158C24.3496 25.5743 24.3135 25.4172 24.3135 25.255V22.0923L23.4192 21.6328L23.4133 21.6365V15.0698H16.5884C15.9443 15.0698 15.4224 14.5454 15.4224 13.8987C15.4224 12.5569 14.3357 11.4655 13 11.4655C11.6643 11.4655 10.5776 12.557 10.5776 13.8987C10.5776 14.5454 10.0557 15.0698 9.41162 15.0698H2.58667V22.1891H22.6795C21.9872 22.8105 21.5125 23.5881 21.3594 24.5314H2.58667V25.7131C2.58667 26.7532 3.42896 27.5992 4.46436 27.5992H21.5356C21.6479 27.5992 21.7579 27.5893 21.8648 27.5702C22.1943 28.2804 22.6601 28.9659 23.2363 29.581C22.716 29.8127 22.1405 29.9415 21.5356 29.9415H4.4646C2.14331 29.9415 0.254883 28.0447 0.254883 25.7131V12.2701C0.254883 11.0342 0.790771 9.86401 1.7251 9.05969L4.19482 6.93335V6.05469H3.2688C1.60693 6.05469 0.254883 4.69666 0.254883 3.02734C0.254883 1.35815 1.60693 0 3.2688 0H22.7314C24.3933 0 25.7451 1.35815 25.7451 3.02734C25.7451 4.69666 24.3933 6.05469 22.7314 6.05469H21.8054V6.93335ZM2.58667 3.02734C2.58667 3.40515 2.89258 3.7124 3.26855 3.7124H22.7312C23.1074 3.7124 23.4133 3.40515 23.4133 3.02734C23.4133 2.64966 23.1074 2.34229 22.7312 2.34229H3.26855C2.89258 2.34229 2.58667 2.64954 2.58667 3.02734ZM23.4133 12.7277H17.6096C17.0884 10.6587 15.2195 9.12329 13 9.12329C10.7808 9.12329 8.91162 10.6587 8.39062 12.7277H2.58667C2.58667 12.6869 2.58601 12.6436 2.58532 12.598C2.57819 12.127 2.56745 11.4189 3.24243 10.838L6.11938 8.36121C6.25928 8.24084 6.36694 8.09058 6.43628 7.92383C6.49512 7.78223 6.52661 7.62891 6.52661 7.47192V6.05469H19.4734V7.47205C19.4734 7.63525 19.5073 7.79468 19.571 7.94092C19.6406 8.10083 19.7456 8.245 19.8806 8.36133L22.7576 10.838C23.4202 11.4086 23.4165 12.0807 23.4138 12.6238L23.4133 12.7277Z" fill="#979797"/>
</svg>
