<svg width="33" height="40" viewBox="0 0 33 40" fill="none" xmlns="http://www.w3.org/2000/svg">
<path d="M12.8659 10.9367C12.6959 10.71 12.3559 10.6533 12.0725 10.8233C11.8459 10.9933 11.7892 11.3333 11.9592 11.6167L13.9992 14.5067C14.4525 15.1867 14.7358 16.0933 14.7358 17C14.7358 17.34 14.9625 17.5667 15.3025 17.5667C15.6425 17.5667 15.8691 17.34 15.8691 17C15.8691 15.8667 15.5291 14.7334 14.9058 13.8267L12.8659 10.9367Z" fill="#979797"/>
<path fill-rule="evenodd" clip-rule="evenodd" d="M32.0122 26.0075L25.7227 20.2884C25.6152 20.1905 25.4844 20.1277 25.3467 20.1026C25.2793 20.0904 25.2109 20.0872 25.1426 20.0934C25.0703 20.0998 24.9985 20.1167 24.9292 20.1443L10.48 25.8933C10.1689 26.0169 9.97949 26.3269 10.0024 26.6537L10.001 26.6709L10 26.7022V29.9588C10 30.3795 10.3408 30.7203 10.7612 30.7203C12.1934 30.7203 13.3579 31.8852 13.3579 33.317C13.3579 34.7487 12.1934 35.9138 10.7612 35.9138C10.3408 35.9138 10 36.2546 10 36.6753V39.2109C10 39.6316 10.3408 39.9724 10.7612 39.9724H31.5327C31.9536 39.9724 32.2944 39.6316 32.2944 39.2109V26.7022C32.2944 26.6917 32.293 26.6815 32.2925 26.6711C32.2949 26.6478 32.2959 26.6245 32.2959 26.6007C32.2959 26.3609 32.1851 26.1471 32.0122 26.0075ZM25.0503 21.7351L29.5635 25.8394H18.1929H17.0029H14.7349L17.0029 24.937L18.1929 24.4636L25.0503 21.7351ZM11.5229 38.4496H30.7715V27.3622H18.1929H17.0029H11.5229V29.268C12.1611 29.3878 12.7479 29.6552 13.2463 30.0333C13.655 30.3434 14.0044 30.728 14.2739 31.1666C14.5844 31.6719 14.7889 32.2489 14.8564 32.8666C14.8726 33.0145 14.8809 33.1648 14.8809 33.317C14.8809 33.5496 14.8615 33.7778 14.8242 34C14.5395 35.6992 13.2109 37.0492 11.5229 37.3661V38.4496Z" fill="#979797"/>
<path fill-rule="evenodd" clip-rule="evenodd" d="M32.0122 26.0075L25.7227 20.2884C25.6152 20.1905 25.4844 20.1277 25.3467 20.1026C25.2793 20.0904 25.2109 20.0872 25.1426 20.0934C25.0703 20.0998 24.9985 20.1167 24.9292 20.1443L10.48 25.8933C10.1689 26.0169 9.97949 26.3269 10.0024 26.6537L10.001 26.6709L10 26.7022V29.9588C10 30.3795 10.3408 30.7203 10.7612 30.7203C12.1934 30.7203 13.3579 31.8852 13.3579 33.317C13.3579 34.7487 12.1934 35.9138 10.7612 35.9138C10.3408 35.9138 10 36.2546 10 36.6753V39.2109C10 39.6316 10.3408 39.9724 10.7612 39.9724H31.5327C31.9536 39.9724 32.2944 39.6316 32.2944 39.2109V26.7022C32.2944 26.6917 32.293 26.6815 32.2925 26.6711C32.2949 26.6478 32.2959 26.6245 32.2959 26.6007C32.2959 26.3609 32.1851 26.1471 32.0122 26.0075ZM25.0503 21.7351L29.5635 25.8394H18.1929H17.0029H14.7349L17.0029 24.937L18.1929 24.4636L25.0503 21.7351ZM11.5229 38.4496H30.7715V27.3622H18.1929H17.0029H11.5229V29.268C12.1611 29.3878 12.7479 29.6552 13.2463 30.0333C13.655 30.3434 14.0044 30.728 14.2739 31.1666C14.5844 31.6719 14.7889 32.2489 14.8564 32.8666C14.8726 33.0145 14.8809 33.1648 14.8809 33.317C14.8809 33.5496 14.8615 33.7778 14.8242 34C14.5395 35.6992 13.2109 37.0492 11.5229 37.3661V38.4496Z" fill="#979797"/>
<path d="M27.6745 32.0562C28.2372 32.0562 28.6933 31.6001 28.6933 31.0375C28.6933 30.4748 28.2372 30.0187 27.6745 30.0187C27.1119 30.0187 26.6558 30.4748 26.6558 31.0375C26.6558 31.6001 27.1119 32.0562 27.6745 32.0562Z" fill="#979797"/>
<path d="M17.7786 33.0298C17.8512 33.0298 17.922 33.0225 17.9905 33.0087C18.4743 32.9105 18.8385 32.4828 18.8385 31.9699C18.8385 31.5315 18.5724 31.1553 18.1929 30.994C18.0656 30.94 17.9256 30.91 17.7786 30.91C17.4724 30.91 17.1964 31.0399 17.0029 31.2477C16.8266 31.437 16.7188 31.6908 16.7188 31.9699C16.7188 32.2073 16.7968 32.4265 16.9287 32.6032C17.1219 32.8622 17.4307 33.0298 17.7786 33.0298Z" fill="#979797"/>
<path d="M25.2602 36.0838C26.0592 36.0838 26.7069 35.4361 26.7069 34.6371C26.7069 33.8381 26.0592 33.1904 25.2602 33.1904C24.4612 33.1904 23.8135 33.8381 23.8135 34.6371C23.8135 35.4361 24.4612 36.0838 25.2602 36.0838Z" fill="#979797"/>
<path d="M19.9597 37.0219C20.6222 37.0219 21.1592 36.4849 21.1592 35.8224C21.1592 35.16 20.6222 34.6229 19.9597 34.6229C19.2973 34.6229 18.7603 35.16 18.7603 35.8224C18.7603 36.4849 19.2973 37.0219 19.9597 37.0219Z" fill="#979797"/>
<path d="M22.4724 31.2605C23.1646 31.2605 23.7256 30.6995 23.7256 30.0073C23.7256 29.3152 23.1646 28.7542 22.4724 28.7542C21.7803 28.7542 21.2192 29.3152 21.2192 30.0073C21.2192 30.6995 21.7803 31.2605 22.4724 31.2605Z" fill="#979797"/>
<path fill-rule="evenodd" clip-rule="evenodd" d="M13.603 7.70667L16.8896 12.6366C17.7397 13.8833 18.1929 15.3567 18.1929 16.8866V24.4636L17.0029 24.937V16.8867C17.0029 15.5834 16.606 14.3367 15.9263 13.26L12.6396 8.33008C12.564 8.23535 12.4946 8.13428 12.4292 8.02893C12.2996 7.81973 12.1866 7.594 12.0736 7.36836L12.0728 7.3667H6.06641L6.06348 7.37329C5.89404 7.71106 5.72461 8.04858 5.49951 8.33008L2.21289 13.26C1.53271 14.3367 1.13623 15.5834 1.13623 16.8867V30.0333H13.2463C13.655 30.3434 14.0044 30.728 14.2739 31.1666H1.13623V32.2999C1.13623 32.64 1.36279 32.8666 1.70264 32.8666H14.8564C14.8726 33.0145 14.8809 33.1648 14.8809 33.317C14.8809 33.5496 14.8615 33.7778 14.8242 34H1.70312C0.739746 34 0.00292969 33.2633 0.00292969 32.3V16.8866C0.00292969 15.3567 0.456055 13.8833 1.30615 12.6366L4.59277 7.70667C4.78906 7.39612 4.96045 7.07104 5.10693 6.73499C5.12646 6.68115 5.14404 6.62732 5.15967 6.57336L5.23486 6.42261C5.51562 5.68188 5.66943 4.89197 5.66943 4.07996V3.40002H4.98975C4.42285 3.40002 3.96973 2.94666 3.96973 2.38V1.02002C3.96973 0.453369 4.42285 0 4.98975 0H13.0361C13.5464 0 14.1694 0.396606 14.1694 1.02002V2.38C14.1694 3.0033 13.5464 3.40002 13.0361 3.40002H12.4697V4.07996C12.4697 4.38281 12.4912 4.6825 12.5347 4.97766C12.5542 5.11047 12.5781 5.24231 12.6069 5.37317C12.6357 5.50537 12.6689 5.63647 12.707 5.76636C12.7534 5.92383 12.8062 6.07959 12.8662 6.23328L13.0361 6.57324C13.2061 6.96997 13.3765 7.3667 13.603 7.70667ZM18.1929 25.8394H17.0029V27.3622H18.1929V25.8394ZM17.7786 33.0298C17.4307 33.0298 17.1219 32.8622 16.9287 32.6032C16.9767 32.5182 17.0029 32.4157 17.0029 32.2999V31.2477C17.1964 31.0399 17.4724 30.91 17.7786 30.91C17.9256 30.91 18.0656 30.94 18.1929 30.994V31.1666H18.1362V32.3C18.1362 32.5553 18.0845 32.7947 17.9905 33.0087C17.922 33.0225 17.8512 33.0298 17.7786 33.0298ZM5.10303 1.1333V2.2666H13.0366V1.1333H5.10303ZM11.3359 3.40002V4.08008C11.3359 4.81738 11.4424 5.54126 11.6465 6.2334H6.49219C6.69629 5.54138 6.80273 4.8175 6.80273 4.08008V3.40002H11.3359Z" fill="#979797"/>
</svg>
