<svg width="38" height="40" viewBox="0 0 38 40" fill="none" xmlns="http://www.w3.org/2000/svg">
<path fill-rule="evenodd" clip-rule="evenodd" d="M1.35742 0H36.6431C37.3809 0 37.9795 0.594116 37.9795 1.32666V36.3502C37.9795 37.0828 37.3809 37.6769 36.6431 37.6769H33.5688V38.5392C33.5688 39.2719 32.9702 39.866 32.2324 39.866C31.4941 39.866 30.896 39.2719 30.896 38.5392V37.6769H7.10498V38.5392C7.10498 39.2719 6.50635 39.866 5.76855 39.866C5.03027 39.866 4.43164 39.2719 4.43164 38.5392V37.6769H1.35742C0.619629 37.6769 0.0209961 37.0828 0.0209961 36.3502V1.32666C0.0209961 0.594116 0.619629 0 1.35742 0ZM35.3066 8.75598V2.65344H2.69434V8.75598H35.3066ZM2.69434 35.0236V11.4092H35.3066V35.0236H2.69434ZM32.2319 7.03125H30.0264C29.2886 7.03125 28.6899 6.43713 28.6899 5.70447C28.6899 4.97192 29.2886 4.37781 30.0264 4.37781H32.2319C32.9702 4.37781 33.5684 4.97192 33.5684 5.70447C33.5684 6.43713 32.9702 7.03125 32.2319 7.03125ZM23.4106 7.03125H25.6162C26.3545 7.03125 26.9526 6.43713 26.9526 5.70447C26.9526 4.97192 26.3545 4.37781 25.6162 4.37781H23.4106C22.6729 4.37781 22.0742 4.97192 22.0742 5.70447C22.0742 6.43713 22.6729 7.03125 23.4106 7.03125ZM19 7.03125H16.7944C16.0566 7.03125 15.458 6.43713 15.458 5.70447C15.458 4.97192 16.0566 4.37781 16.7944 4.37781H19C19.7383 4.37781 20.3364 4.97192 20.3364 5.70447C20.3364 6.43713 19.7383 7.03125 19 7.03125ZM5.76807 7.03125H7.97363C8.71191 7.03125 9.31006 6.43713 9.31006 5.70447C9.31006 4.97192 8.71191 4.37781 7.97363 4.37781H5.76807C5.03027 4.37781 4.43164 4.97192 4.43164 5.70447C4.43164 6.43713 5.03027 7.03125 5.76807 7.03125ZM33.5688 14.4603C33.5688 13.7278 32.9702 13.1338 32.2324 13.1338H5.76807C5.03027 13.1338 4.43164 13.7279 4.43164 14.4604V31.9723C4.43164 32.705 5.03027 33.2988 5.76807 33.2988H32.2319C32.9702 33.2988 33.5688 32.705 33.5688 31.9723V14.4603ZM30.896 30.6456H7.10498V15.7871H30.896V30.6456Z" fill="#979797"/>
</svg>
